<?xml version="1.0" encoding="UTF-8" standalone="no"?>
<!-- Created with Inkscape (http://www.inkscape.org/) -->
<svg
   xmlns:svg="http://www.w3.org/2000/svg"
   xmlns="http://www.w3.org/2000/svg"
   version="1.0"
   width="567.92126"
   height="360.53149"
   id="svg1978">
  <defs
     id="defs1980">
  
  
 
   
   
  
    
    
    
    
    
    
    
    
    
    
    
   </defs>
  <g
     transform="translate(-435.4729,669.4331)"
     id="layer1">
    <g
       transform="matrix(1.882734,0,0,1.882734,-380.8717,282.4793)"
       id="g29527">
      <path
         d="M 529.30861,-315.99005 L 717.06156,-315.99005 L 717.06156,-503.71858 L 529.30861,-503.71858 L 529.30861,-315.99005 z "
         style="fill:#1f57ae;fill-rule:nonzero;stroke:none"
         id="path29354" />
      <path
         d="M 691.32584,-480.80848 C 696.40793,-480.80848 699.94506,-477.99099 701.49002,-477.99099 C 703.36024,-477.99099 702.99432,-478.74314 703.52286,-479.69044 C 703.52286,-479.87338 703.92944,-480.06041 704.09206,-480.06041 C 704.45795,-480.06041 704.86454,-480.06041 704.86454,-479.69044 L 704.86454,-467.48526 C 704.86454,-467.29419 704.45795,-467.11124 704.29534,-467.11124 C 703.92944,-467.11124 703.52286,-467.11124 703.52286,-467.48526 C 703.52286,-472.92515 697.91223,-479.30826 691.32584,-479.30826 C 684.5768,-479.30826 681.40559,-474.42537 681.40559,-460.91108 C 681.40559,-447.39271 683.43843,-442.13576 691.32584,-442.13576 C 697.91223,-442.13576 703.36024,-448.71406 703.52286,-453.58879 C 703.72613,-453.96284 703.92944,-453.96284 704.29534,-453.96284 C 704.45795,-453.96284 704.86454,-453.77174 704.86454,-453.58879 L 704.86454,-441.75766 C 704.86454,-441.37549 704.45795,-441.37549 704.09206,-441.37549 C 703.92944,-441.37549 703.52286,-441.57472 703.52286,-441.75766 C 702.79104,-442.50981 702.99432,-443.45711 701.49002,-443.45711 C 699.94506,-443.45711 696.40793,-440.63554 691.32584,-440.63554 C 680.26719,-440.63554 672.74567,-448.52295 672.74567,-460.91108 C 672.74567,-473.30325 680.99901,-480.80848 691.32584,-480.80848"
         style="fill:white;fill-rule:nonzero;stroke:none"
         id="path29356" />
      <path
         d="M 653.79965,-478.56016 C 653.43373,-478.56016 653.23045,-478.56016 653.23045,-479.30826 C 653.23045,-480.06041 653.43373,-480.06041 653.79965,-480.06041 L 669.57447,-480.06041 C 669.94036,-480.06041 670.10301,-480.06041 670.10301,-479.30826 C 670.10301,-478.56016 669.94036,-478.56016 669.57447,-478.56016 L 665.63075,-478.56016 L 665.63075,-442.89199 L 669.57447,-442.89199 C 669.94036,-442.89199 670.10301,-442.50981 670.10301,-442.13576 C 670.10301,-441.75766 669.94036,-441.37549 669.57447,-441.37549 L 653.79965,-441.37549 C 653.43373,-441.37549 653.23045,-441.37549 653.23045,-442.13576 C 653.23045,-442.89199 653.43373,-442.89199 653.79965,-442.89199 L 657.74334,-442.89199 L 657.74334,-478.56016 L 653.79965,-478.56016"
         style="fill:white;fill-rule:nonzero;stroke:none"
         id="path29358" />
      <path
         d="M 634.44701,-480.80848 C 640.26095,-480.80848 643.06627,-477.99099 644.61122,-477.99099 C 645.91221,-477.99099 645.70893,-478.92608 646.07486,-479.69044 L 646.64406,-480.06041 L 647.41654,-479.69044 L 647.41654,-467.48526 C 647.41654,-467.11124 647.00995,-467.11124 646.64406,-467.11124 C 646.48141,-467.11124 646.07486,-467.29419 646.07486,-467.48526 C 645.70893,-474.61647 641.03343,-479.49121 634.44701,-479.49121 C 627.69801,-479.49121 623.95756,-474.42537 623.95756,-460.91108 C 623.95756,-447.39271 626.5596,-441.94469 634.44701,-441.94469 C 636.68316,-441.94469 640.62684,-443.07493 640.62684,-446.0754 L 640.62684,-452.64962 L 637.29299,-452.64962 C 636.88643,-452.64962 636.88643,-452.64962 636.88643,-453.40585 C 636.88643,-454.14987 636.88643,-454.14987 637.29299,-454.14987 L 651.36023,-454.14987 C 651.72615,-454.14987 651.72615,-454.14987 651.72615,-453.40585 C 651.72615,-452.64962 651.72615,-452.64962 651.36023,-452.64962 L 648.35163,-452.64962 L 648.35163,-444.95736 C 643.83875,-441.37549 640.62684,-440.63554 634.44701,-440.63554 C 623.34773,-440.63554 615.29768,-448.52295 615.29768,-460.91108 C 615.29768,-473.30325 624.12021,-480.80848 634.44701,-480.80848"
         style="fill:white;fill-rule:nonzero;stroke:none"
         id="path29360" />
      <path
         d="M 593.13975,-480.80848 C 603.46655,-480.80848 611.92316,-473.11218 611.92316,-460.72813 C 611.92316,-448.33188 603.66986,-440.63554 593.13975,-440.63554 C 582.81292,-440.63554 574.39697,-448.33188 574.39697,-460.72813 C 574.39697,-473.11218 582.81292,-480.80848 593.13975,-480.80848"
         style="fill:white;fill-rule:nonzero;stroke:none"
         id="path29362" />
      <path
         d="M 539.26952,-478.56016 C 538.90362,-478.56016 538.74101,-478.56016 538.74101,-479.30826 C 538.74101,-480.06041 538.90362,-480.06041 539.26952,-480.06041 L 556.18273,-480.06041 C 556.54866,-480.06041 556.71127,-480.06041 556.71127,-479.30826 C 556.71127,-478.56016 556.54866,-478.56016 556.18273,-478.56016 L 551.66984,-478.56016 L 551.66984,-442.89199 L 561.63075,-442.89199 C 563.2977,-442.89199 566.50957,-443.82708 568.37979,-446.0754 C 570.45329,-448.52295 570.81918,-450.59237 571.1851,-453.77174 C 571.1851,-454.14987 571.55099,-454.14987 571.91692,-454.14987 C 572.1202,-454.14987 572.48612,-453.96284 572.48612,-453.77174 L 572.48612,-441.37549 L 539.26952,-441.37549 C 538.90362,-441.37549 538.74101,-441.37549 538.74101,-442.13576 C 538.74101,-442.89199 538.90362,-442.89199 539.26952,-442.89199 L 543.57916,-442.89199 L 543.57916,-478.56016 L 539.26952,-478.56016"
         style="fill:white;fill-rule:nonzero;stroke:none"
         id="path29364" />
      <path
         d="M 521.62448,-478.56016 C 521.9904,-478.56016 522.19368,-478.56016 522.19368,-479.30826 C 522.19368,-480.06041 521.9904,-480.06041 521.62448,-480.06041 L 505.84966,-480.06041 C 505.48377,-480.06041 505.28046,-480.06041 505.28046,-479.30826 C 505.28046,-478.56016 505.48377,-478.56016 505.84966,-478.56016 L 509.79338,-478.56016 L 509.79338,-442.89199 L 505.84966,-442.89199 C 505.48377,-442.89199 505.28046,-442.89199 505.28046,-442.13576 C 505.28046,-441.37549 505.48377,-441.37549 505.84966,-441.37549 L 521.62448,-441.37549 C 521.9904,-441.37549 522.19368,-441.75766 522.19368,-442.13576 C 522.19368,-442.50981 521.9904,-442.89199 521.62448,-442.89199 L 517.68079,-442.89199 L 517.68079,-478.56016 L 521.62448,-478.56016"
         style="fill:#1f57ae;fill-rule:nonzero;stroke:none"
         id="path29366" />
      <path
         d="M 468.6894,-454.14987 C 468.32348,-454.14987 467.95755,-454.14987 467.95755,-453.77174 C 467.551,-450.59237 467.18507,-448.52295 465.11161,-446.0754 C 463.24139,-444.01819 460.07015,-442.89199 458.36257,-442.89199 L 448.40167,-442.89199 L 448.40167,-478.56016 L 452.91456,-478.56016 C 453.32114,-478.56016 453.48376,-478.56016 453.48376,-479.30826 C 453.48376,-480.06041 453.32114,-479.87338 452.91456,-480.06041 L 436.042,-480.06041 C 435.63545,-480.06041 435.4728,-480.06041 435.4728,-479.30826 C 435.4728,-478.56016 435.63545,-478.56016 436.042,-478.56016 L 440.35161,-478.56016 L 440.35161,-442.89199 L 436.042,-442.89199 C 435.63545,-442.89199 435.4728,-442.89199 435.4728,-442.13576 C 435.4728,-441.37549 435.63545,-441.37549 436.042,-441.37549 L 469.25857,-441.37549 L 469.25857,-453.77174 C 469.25857,-453.96284 468.89268,-454.14987 468.6894,-454.14987"
         style="fill:#1f57ae;fill-rule:nonzero;stroke:none"
         id="path29368" />
      <path
         d="M 490.07485,-465.98504 C 485.03342,-467.29419 479.21948,-468.42039 479.21948,-472.92515 C 479.21948,-477.99099 483.69174,-479.49121 487.47281,-479.49121 C 493.28672,-479.49121 497.39306,-474.98644 498.16553,-468.61146 C 498.16553,-468.22928 498.53146,-468.22928 498.89735,-468.22928 C 499.10066,-468.22928 499.46655,-468.42039 499.46655,-468.61146 L 499.46655,-479.87338 C 499.46655,-480.06041 499.10066,-480.24335 498.89735,-480.24335 C 498.73474,-480.24335 498.32818,-480.06041 498.32818,-479.87338 C 497.79964,-479.11716 497.59633,-478.18206 496.66124,-478.18206 C 494.79102,-478.18206 492.92083,-480.80848 487.47281,-480.80848 C 477.51191,-480.80848 474.13739,-475.55969 474.13739,-469.36769 C 474.13739,-460.91108 479.21948,-459.59785 486.49706,-457.52843 C 491.21322,-456.21521 496.66124,-454.90606 496.66124,-449.8321 C 496.66124,-444.01819 491.41653,-442.13576 487.26953,-442.13576 C 479.5854,-442.13576 475.43841,-448.89292 475.43841,-455.65416 C 475.43841,-456.03226 475.07252,-456.03226 474.70659,-456.03226 C 474.50331,-456.03226 474.13739,-455.84116 474.13739,-455.65416 L 474.13739,-441.57472 C 474.13739,-441.20067 474.50331,-441.20067 474.8692,-441.20067 C 475.07252,-441.20067 475.43841,-441.37549 475.43841,-441.57472 C 476.21089,-442.32687 476.57681,-443.07493 477.71518,-443.07493 C 480.15461,-443.07493 482.39072,-440.63554 487.26953,-440.63554 C 494.79102,-440.63554 501.33678,-445.5184 501.33678,-453.77174 C 501.33678,-458.8457 500.03576,-463.34642 490.07485,-465.98504"
         style="fill:#1f57ae;fill-rule:nonzero;stroke:none"
         id="path29370" />
      <path
         d="M 593.13975,-441.94469 C 600.09206,-441.94469 602.32818,-447.20973 602.32818,-460.72813 C 602.32818,-474.23429 600.09206,-479.49121 593.13975,-479.49121 C 586.2281,-479.49121 583.95132,-474.23429 583.95132,-460.72813 C 583.95132,-447.20973 586.2281,-441.94469 593.13975,-441.94469"
         style="fill:#1f57ae;fill-rule:nonzero;stroke:none"
         id="path29372" />
      <path
         d="M 728.85202,-472.43319 C 726.41263,-472.43319 724.33913,-474.48636 724.33913,-476.93391 C 724.33913,-479.3733 726.41263,-481.43459 728.85202,-481.43459 C 731.29145,-481.43459 733.36491,-479.3733 733.36491,-476.93391 C 733.36491,-474.48636 731.29145,-472.43319 728.85202,-472.43319 z M 728.85202,-480.87355 C 726.77852,-480.87355 724.9083,-478.99112 724.9083,-476.93391 C 724.9083,-474.86041 726.77852,-472.98614 728.85202,-472.98614 C 730.92552,-472.98614 732.79574,-474.86041 732.79574,-476.93391 C 732.79574,-478.99112 730.92552,-480.87355 728.85202,-480.87355 z M 730.15304,-474.67746 L 730.15304,-475.80771 C 730.15304,-476.36063 729.58384,-476.55986 729.21795,-476.7428 L 727.91693,-476.7428 L 727.91693,-474.67746 L 727.14445,-474.67746 L 727.14445,-479.5522 L 729.58384,-479.5522 C 730.35632,-479.5522 730.92552,-478.99112 730.92552,-478.24305 C 730.92552,-477.68198 730.72224,-477.2998 730.15304,-477.12498 C 730.5596,-476.7428 730.92552,-476.55986 730.92552,-475.99474 L 730.92552,-474.67746 L 730.15304,-474.67746 z M 729.58384,-478.80818 L 727.91693,-478.80818 L 727.91693,-477.49091 L 729.58384,-477.49091 C 729.99043,-477.49091 730.15304,-477.68198 730.15304,-478.05195 C 730.15304,-478.43413 729.99043,-478.80818 729.58384,-478.80818"
         style="fill:#1f57ae;fill-rule:nonzero;stroke:none"
         id="path29374" />
    </g>
  </g>
</svg>
